<?xml version="1.0" standalone="no"?>
<!DOCTYPE svg PUBLIC "-//W3C//DTD SVG 1.1//EN" "http://www.w3.org/Graphics/SVG/1.1/DTD/svg11.dtd" >
<svg xmlns="http://www.w3.org/2000/svg" xmlns:xlink="http://www.w3.org/1999/xlink" version="1.1">
<metadata></metadata>
<defs>
<font id="ciclegordita_italic" horiz-adv-x="1220" >
<font-face units-per-em="2048" ascent="1638" descent="-410" />
<missing-glyph horiz-adv-x="526" />
<glyph horiz-adv-x="0" />
<glyph horiz-adv-x="682" />
<glyph unicode=" "  horiz-adv-x="526" />
<glyph unicode="&#x09;" horiz-adv-x="526" />
<glyph unicode="&#xa0;" horiz-adv-x="526" />
<glyph unicode="!" horiz-adv-x="360" d="M94 61q8 34 34.5 56t61.5 22q36 0 51 -21t9 -55v-2q-6 -31 -33 -55t-59 -24q-34 0 -52 23.5t-12 55.5zM133 190l256 1205h133l-256 -1205h-133z" />
<glyph unicode="&#x22;" horiz-adv-x="444" d="M295 1083l43 312h156l-15 -158l-141 -209zM438 1083l43 312h158l-16 -158l-142 -209z" />
<glyph unicode="#" horiz-adv-x="1462" d="M104 424l156 151h195q12 21 45.5 77.5t48.5 84.5q6 9 13 20.5t16 26.5h-398l152 150h327q10 17 125 207q16 28 51.5 85t47.5 77h153l-217 -369h391q40 69 152 256q14 21 40 65.5t28 47.5h155l-217 -369h250l-152 -150h-178q-7 -12 -21.5 -35t-21.5 -36 q-9 -16 -37.5 -60.5t-46.5 -77.5h383l-158 -151h-311q-6 -10 -114 -199q-56 -98 -127 -225h-160l246 424h-396q-90 -164 -153 -270l2 2q-14 -26 -46 -80.5t-44 -75.5h-158l246 424h-267zM612 575h396q7 14 16 30t20 36t17 31q14 20 67 112h-391z" />
<glyph unicode="$" horiz-adv-x="954" d="M82 201l137 94q31 -64 81.5 -109.5t115.5 -52.5l106 494q-149 34 -219 139t-39 246q29 137 147 241.5t273 137.5l18 92h148l-16 -82q191 -11 307 -184l-137 -95q-77 119 -201 133l-109 -507q147 -36 219.5 -140t42.5 -243q-29 -134 -151 -239.5t-273 -135.5l-24 -117 h-148l25 113q-102 12 -182.5 70t-120.5 145zM418 1018q-15 -78 21 -143.5t116 -92.5l96 459q-88 -27 -152 -87.5t-81 -135.5zM565 139q89 19 155.5 78t84.5 141q17 81 -23.5 149t-117.5 95z" />
<glyph unicode="&#x26;" horiz-adv-x="1222" d="M150 395q23 113 130.5 219t274.5 181q1 0 4.5 1t5.5 1q-2 2 0 4v-2q0 4 -2 6q-73 104 -89.5 167.5t-2.5 129.5q26 120 138 210.5t257 90.5q137 0 207 -84.5t45 -204.5q-21 -95 -99.5 -175.5t-227.5 -152.5l-7 -4q20 -33 54.5 -95t54.5 -95q30 -51 80 -137q2 4 8 10 q56 78 104 186l158 -33q-119 -212 -188 -294q0 -5 -4 -13l-4 -8q20 -48 36.5 -73.5t59.5 -69.5l-37 -172q-66 50 -99 86.5t-63 85.5q-8 16 -10 18l-6 12l-10 -8q-207 -185 -424 -182q-121 0 -208.5 54.5t-122.5 145t-13 195.5zM319 406q-15 -65 4.5 -126.5t72 -102 t126.5 -40.5q77 -1 167.5 46t158.5 120l4 4q-18 31 -63.5 112t-71.5 124q-15 25 -29.5 49.5t-32.5 54.5t-30 51l-7 -4q-142 -72 -213 -141.5t-86 -146.5zM633 1118q-13 -75 33 -145l61 -92q1 0 3 1t3 1h-2q115 59 164 109.5t63 119.5t-21.5 117.5t-107.5 48.5 q-66 0 -124.5 -47t-71.5 -113zM1004 297h40v-10l-38 -4z" />
<glyph unicode="'" horiz-adv-x="247" d="M240 1094l100 143l12 145l160 13l-16 -164l-215 -189z" />
<glyph unicode="(" horiz-adv-x="532" d="M156 81.5q-24 225.5 34 506.5q55 263 175 491.5t262 350.5l28 -160q-95 -93 -178.5 -277t-128.5 -405q-52 -245 -39.5 -437.5t82.5 -275.5l-117 -137q-94 118 -118 343.5z" />
<glyph unicode=")" horiz-adv-x="503" d="M53 -123q104 83 198 276t146 435q47 221 42.5 406t-62.5 276l94 160q91 -125 115.5 -350.5t-29.5 -491.5q-59 -272 -181.5 -501.5t-264.5 -346.5z" />
<glyph unicode="*" horiz-adv-x="964" d="M328 1036l30 146h187l-105 133l127 104l103 -131l41 187h145l-41 -187l162 131l82 -102l-160 -133h186l-30 -148h-191q4 -7 10 -14t14 -15.5t13 -13.5l70 -90l-123 -102l-107 135l-41 -193h-145l39 189q-12 -10 -73.5 -60.5t-84.5 -70.5l-86 102l164 133h-186z" />
<glyph unicode="+" horiz-adv-x="925" d="M201 524l30 148h289l62 291h147l-61 -291h290l-30 -148h-291l-62 -291h-147l61 291h-288z" />
<glyph unicode="," horiz-adv-x="354" d="M23 -86l106 129l31 147h157l-36 -172l-232 -170z" />
<glyph unicode="-" horiz-adv-x="862" d="M172 524l31 148h729l-31 -148h-729z" />
<glyph unicode="." horiz-adv-x="296" d="M53 0l39 190h191l-39 -190h-191z" />
<glyph unicode="/" horiz-adv-x="774" d="M53 0l805 1395h156l-805 -1395h-156z" />
<glyph unicode="0" horiz-adv-x="1200" d="M196.5 417q-16.5 129 16.5 275q41 193 147 357t246.5 259t280.5 95q85 0 156.5 -36t120 -101t78.5 -154t31 -195t-22 -225q-40 -192 -143 -355t-242 -259t-280 -96q-105 0 -190 56t-134 153t-65.5 226zM352.5 408.5q20.5 -124.5 91 -201t172.5 -76.5t203 75t177.5 204 t109.5 282q31 159 11.5 283.5t-89.5 201t-172 76.5t-204 -75t-179.5 -204t-110.5 -282q-30 -159 -9.5 -283.5z" />
<glyph unicode="1" horiz-adv-x="538" d="M276 1163l328 232h125l-295 -1395h-147l252 1186q-27 -20 -79.5 -55.5t-74.5 -51.5q-10 -3 -25 -18z" />
<glyph unicode="2" horiz-adv-x="972" d="M92 0l27 127l702 635q93 83 117 196q26 124 -44 209.5t-198 85.5q-125 0 -256 -106l-84 106q204 150 371 150q123 0 214 -60.5t129 -163t13 -221.5q-36 -166 -184 -301l-559 -512h571l-30 -145h-789z" />
<glyph unicode="3" horiz-adv-x="882" d="M49 147l123 103q40 -56 100.5 -90.5t128.5 -34.5q120 0 222.5 76.5t124.5 183.5q19 84 -48 156.5t-168 95.5h-206l30 147h211q115 6 208 74.5t112 159.5q22 99 -48.5 168t-189.5 69q-73 0 -149.5 -31.5t-139.5 -90.5l-77 108q88 77 192 119.5t205 42.5q119 0 210 -51 t131.5 -139.5t18.5 -194.5q-20 -95 -89.5 -176.5t-168.5 -134.5q73 -58 104 -140.5t9 -181.5q-35 -170 -188 -289t-336 -119q-101 0 -186 46.5t-136 123.5z" />
<glyph unicode="4" horiz-adv-x="968" d="M156 487l30 125l627 793l115 -70l-555 -700h301l63 295h150l-64 -295h189l-31 -148h-188l-103 -487h-149l102 487h-487z" />
<glyph unicode="5" horiz-adv-x="1032" d="M160 225l129 107q33 -86 95 -136.5t140 -50.5q129 0 243 107.5t146 259.5q31 151 -37.5 255.5t-197.5 104.5q-89 0 -176 -53t-146 -143h-137l203 719h772l-31 -150h-631l-20.5 -61.5t-24.5 -75.5q-31 -114 -51 -170q129 80 273 80q126 0 217.5 -67.5t127.5 -184t7 -254.5 q-46 -213 -211 -362.5t-356 -149.5q-111 0 -200 60.5t-134 164.5z" />
<glyph unicode="6" horiz-adv-x="1036" d="M180 403q8 70 49 269l9 41q47 205 96 319q62 156 204.5 262t301.5 109q112 0 202.5 -54t145.5 -157l-158 -82q-32 66 -91 105.5t-128 39.5q-107 0 -207 -74t-141 -186q-44 -115 -82 -270q135 116 313 125q181 0 286.5 -119.5t68.5 -300.5l-5 -18q-38 -181 -189.5 -304.5 t-334.5 -123.5q-114 0 -198.5 55t-122 152t-17.5 215zM328 408q-25 -116 42.5 -197.5t184.5 -81.5q119 0 220 82t126 199l4 16q20 117 -47 196.5t-186 79.5t-219 -87t-125 -207z" />
<glyph unicode="7" horiz-adv-x="907" d="M47 0l846 1245h-518l31 150h755l-946 -1395h-168z" />
<glyph unicode="8" horiz-adv-x="940" d="M127 401q23 105 93.5 198t166.5 151q-120 101 -80 286q32 151 165.5 259t285.5 108q159 0 246 -107.5t55 -259.5q-37 -181 -203 -286q75 -56 103.5 -147.5t5.5 -201.5q-37 -173 -184 -296t-324 -123q-112 0 -196.5 56.5t-121 153.5t-12.5 209zM276 401 q-23 -110 39.5 -190t171.5 -80q114 0 211.5 79.5t120.5 190.5q25 112 -39 192.5t-178 80.5q-109 0 -205 -80.5t-121 -192.5zM453 1036q-19 -91 34.5 -154t147.5 -63q95 0 175 63t99 154q20 91 -33 154t-149 63q-94 0 -174 -63t-100 -154z" />
<glyph unicode="9" horiz-adv-x="1001" d="M125 182l156 109q32 -73 90.5 -113.5t126.5 -40.5q112 0 209.5 71.5t146.5 180.5v-2q45 140 78 275q-152 -119 -330 -119q-112 0 -198.5 54.5t-125.5 150.5t-16 210l2 13q39 178 191.5 305t332.5 127q172 0 271.5 -125t75.5 -299q-7 -56 -52 -272l-10 -52 q-46 -195 -90 -299q-64 -163 -214.5 -266.5t-317.5 -103.5q-100 0 -187 53.5t-139 142.5zM403 963q-17 -115 49 -195t181 -80q121 0 223.5 83.5t128.5 203.5q23 113 -44.5 195.5t-180.5 82.5q-122 0 -226 -86t-131 -204z" />
<glyph unicode=":" horiz-adv-x="372" d="M90 0l39 190h190l-38 -190h-191zM266 838l41 188h191l-41 -188h-191z" />
<glyph unicode=";" horiz-adv-x="346" d="M0 -86l109 129l30 147h160l-37 -172l-235 -170zM266 838l41 188h187l-41 -188h-187z" />
<glyph unicode="&#x3c;" horiz-adv-x="675" d="M127 510l623 518l86 -102l-502 -416q24 -30 74 -93.5t77 -97.5q28 -38 89.5 -112.5t84.5 -104.5l-127 -106z" />
<glyph unicode="=" horiz-adv-x="901" d="M197 385l32 150h709l-33 -150h-708zM276 756l33 151h709l-33 -151h-709z" />
<glyph unicode="&#x3e;" horiz-adv-x="688" d="M61 102l498 408q-16 21 -69 86.5t-82 105.5q-135 173 -170 224l124 102l404 -518l-623 -514z" />
<glyph unicode="?" horiz-adv-x="839" d="M299 1200q79 93 177.5 148t195.5 55q104 0 181 -53.5t108.5 -145t9.5 -198.5q-34 -158 -169 -274t-292 -116h-59q4 -41 12 -127q19 -248 43 -489h-160l-45 639l27 123h215q97 3 179.5 73t104.5 171q22 103 -33 176t-153 73q-64 0 -132.5 -43t-127.5 -116zM344 -152 q7 37 36.5 60.5t63.5 23.5q38 0 56.5 -23t11.5 -61q-8 -37 -37.5 -63.5t-66.5 -26.5q-32 0 -51.5 27.5t-12.5 62.5z" />
<glyph unicode="@" horiz-adv-x="1544" d="M217.5 374q-26.5 123 7.5 285q45 209 167.5 378t305.5 267.5t392 98.5q122 0 224.5 -39t173 -113t98 -180.5t-0.5 -241.5q-27 -125 -104.5 -246.5t-193 -209t-234.5 -103.5q-32 2 -49 3.5t-47 11.5t-46 28q-89 -49 -168 -49q-117 0 -179.5 83t-37.5 202 q26 119 125.5 199.5t218.5 80.5h121q13 60 9 104t-35 44q-68 0 -129 -19l-45 -2l-7 152l50 2q66 20 165 20q175 -5 142 -294q-37 -152 -66 -291q-3 -23 -12 -49v2q-6 -17 -8.5 -28t-1.5 -23.5t11 -18.5t30 -6q38 0 108.5 51t118.5 121q28 39 58.5 113t41.5 124 q23 109 -14 201.5t-131.5 148.5t-226.5 56q-231 0 -419 -161.5t-241 -403.5q-51 -237 68 -370.5t383 -133.5q158 0 292 58.5t216 152.5h188l-43 -66q-100 -132 -282.5 -221.5t-403.5 -89.5q-160 0 -283 42t-201.5 124.5t-105 205.5zM659 549q-12 -58 21.5 -98.5t93.5 -40.5 q57 0 106.5 40.5t61.5 98.5l31 137h-133q-63 0 -115.5 -39t-65.5 -98z" />
<glyph unicode="A" d="M31 0l821 1415h113l223 -1415h-156l-88 559h-430q-108 -181 -213 -362q-87 -144 -117 -197h-153zM598 709h322q-4 34 -16.5 108t-16.5 101v-3q-29 161 -37 224q-50 -78 -96 -164l-2 -2q-113 -194 -154 -264z" />
<glyph unicode="B" horiz-adv-x="1048" d="M86 0l299 1415h463q162 -3 253 -111q68 -80 68 -181q0 -35 -8 -72q-20 -92 -77 -168.5t-142 -130.5q72 -56 103 -146q18 -53 19 -111q0 -39 -9 -79q-36 -167 -182 -288t-322 -124h2l-39 -4h-428zM264 150h316q113 6 207.5 83.5t117.5 182.5q6 27 6 51q-1 71 -47 128 q-62 77 -174 81h-313zM408 825h315q103 3 186 67t105 159q4 20 4 38q0 61 -44 111q-58 64 -159 70h-313z" />
<glyph unicode="C" horiz-adv-x="1208" d="M174 480q-3 30 -3 61q0 80 17 166q40 188 160.5 353t291.5 264t347 99q126 0 235.5 -59t182.5 -162l-125 -102q-131 174 -324 174q-134 0 -264 -75.5t-224.5 -206t-127.5 -285.5q-16 -74 -16 -143q0 -74 18 -142q36 -132 134 -210.5t237 -78.5q186 0 395 172l82 -102 q-122 -104 -253.5 -162.5t-254.5 -58.5q-101 0 -191 37.5t-155 104t-109 157.5t-53 199z" />
<glyph unicode="D" horiz-adv-x="1177" d="M53 0l299 1415h533q104 -1 185.5 -57t127.5 -152q46 -94 60 -222q4 -38 5 -78q0 -93 -24 -195q-40 -192 -140 -353.5t-235 -257t-274 -100.5h-537zM233 150q124 0 187 2q34 0 101 1t100 1q147 5 284.5 167.5t184.5 389.5q19 96 19 180q1 53 -7 99q-18 122 -85 198 t-163 78h-383z" />
<glyph unicode="E" horiz-adv-x="993" d="M68 0l299 1415h843l-30 -145h-697l-94 -445h594l-31 -149h-594l-112 -526h696l-31 -150h-843z" />
<glyph unicode="F" horiz-adv-x="997" d="M76 0l299 1415h844l-31 -143h-696l-95 -447h594l-30 -149h-594l-144 -676h-147z" />
<glyph unicode="G" horiz-adv-x="1236" d="M180 700q31 146 111 280t187.5 231t240 154.5t264.5 57.5q126 0 235 -58.5t185 -162.5l-127 -104q-61 83 -145.5 128.5t-180.5 45.5q-136 0 -267 -76t-226.5 -207.5t-128.5 -288.5q-14 -69 -14 -133q0 -80 22 -153q39 -132 138 -209.5t235 -77.5q166 0 327 121l72 338 h-371l31 145h520l-112 -530l-9 -21q-233 -198 -489 -198q-176 0 -305.5 97t-181.5 263q-29 92 -29 193q0 80 18 165z" />
<glyph unicode="H" horiz-adv-x="1142" d="M78 0l299 1415h149l-125 -590h676l125 590h148l-299 -1415h-148l144 676h-676l-144 -676h-149z" />
<glyph unicode="I" horiz-adv-x="282" d="M68 0l299 1415h149l-299 -1415h-149z" />
<glyph unicode="J" horiz-adv-x="624" d="M49 98l119 103q52 -70 92 -70q56 0 108 64.5t74 162.5l224 1057h151l-223 -1053q-32 -153 -141.5 -266.5t-223.5 -113.5q-103 0 -180 116z" />
<glyph unicode="K" horiz-adv-x="1193" d="M68 0l299 1415h149l-141 -672q203 187 721 672h200l-663 -620q93 -148 290 -450.5t224 -344.5h-197l-442 682q-53 -53 -84 -80q-47 -47 -100 -94l-107 -508h-149z" />
<glyph unicode="L" horiz-adv-x="927" d="M66 0l299 1415h147l-268 -1265h659l-31 -150h-806z" />
<glyph unicode="M" horiz-adv-x="1275" d="M49 0l299 1415h135l277 -719l569 719h137l-299 -1415h-151l231 1098q-275 -346 -491 -621h-92l-234 621l-231 -1098h-150z" />
<glyph unicode="N" horiz-adv-x="1099" d="M74 0l299 1415h133l414 -1091l231 1091h149l-299 -1415h-135l-413 1098l-232 -1098h-147z" />
<glyph unicode="O" horiz-adv-x="1413" d="M174 474q-2 29 -2 58q0 84 18 175q41 195 162.5 360t291 260.5t345.5 95.5q109 0 201.5 -36t156.5 -101t105 -154q42 -90 48 -197q1 -24 1 -48q0 -86 -18 -180q-67 -318 -309 -527q-223 -198 -490 -198q-103 0 -193 36t-156 100.5t-109.5 155t-51.5 200.5zM342 707 q-15 -73 -16 -141q0 -77 20 -147q38 -132 135.5 -209t233.5 -77q140 0 271.5 77t224 208.5t126.5 288.5q15 73 15 140q0 49 -8 93q-18 108 -78 182q-49 72 -130 111t-180 39q-135 0 -264.5 -75t-223 -205t-126.5 -285z" />
<glyph unicode="P" horiz-adv-x="983" d="M84 0l299 1415h420q173 0 272 -107q75 -81 75 -188q0 -33 -7 -69q-34 -158 -179 -267.5t-319 -109.5h-272l-142 -674h-147zM406 823h272q109 0 201 66t114 162q4 20 4 38q1 65 -51 116q-66 65 -176 65h-270z" />
<glyph unicode="Q" horiz-adv-x="1361" d="M209 500q-9 50 -9 102q0 72 17 150q39 187 154.5 342t271 242t313.5 87q121 0 221.5 -51.5t162.5 -142t86 -213.5q11 -53 11 -109q0 -75 -18 -155q-30 -139 -108 -265t-187 -219q-148 -132 -336 -172q0 -84 33 -84q25 0 66 66l90 -98q-108 -111 -186 -111q-66 0 -106 62 t-40 155q-111 10 -204 65t-151.5 143.5t-80.5 205.5zM358 752q-15 -69 -15 -132q0 -101 38 -188q61 -140 197 -190l26 133h4q82 0 134 -39q54 -39 63 -103q160 45 295 191t174 328q13 66 13 127q0 46 -7 89q-18 101 -74 175q-102 143 -278 143q-188 0 -356 -157t-214 -377z M575 238l3 4q1 -1 3 -1.5t5.5 -1t5.5 -1.5h-17z" />
<glyph unicode="R" horiz-adv-x="970" d="M66 0l299 1415h419q114 0 200 -49q84 -48 122 -132q24 -53 24 -113q0 -35 -8 -72q-32 -155 -176 -264t-317 -109h-119q131 -202 199 -299q31 -48 254 -377h-195l-422 621l-131 -621h-149zM389 825h270q109 0 201.5 65.5t112.5 158.5q5 21 5 41q0 65 -50 116 q-66 66 -178 66h-267z" />
<glyph unicode="S" horiz-adv-x="993" d="M102 205l138 94q34 -79 102 -123.5t160 -44.5q114 0 211.5 68.5t117.5 165.5q5 23 5 44q0 67 -48 124q-62 75 -172 92q-171 25 -267 139q-72 86 -72 192q0 35 8 72q37 168 190 280.5t340 112.5q232 0 361 -184l-144 -98q-81 139 -248 139q-117 0 -220.5 -71.5 t-125.5 -170.5q-6 -26 -6 -50q0 -71 49 -128q65 -77 183 -86q170 -22 262 -137q69 -85 69 -190q0 -36 -8 -74q-23 -107 -100.5 -196.5t-189 -141t-230.5 -51.5q-126 0 -223 61t-142 162z" />
<glyph unicode="T" horiz-adv-x="1177" d="M332 1270l30 145h1031l-31 -145h-438l-269 -1270h-149l268 1270h-442z" />
<glyph unicode="U" horiz-adv-x="1224" d="M143 369l222 1046h155l-221 -1042v-9q1 -90 91 -159q96 -72 241 -72q139 0 263.5 72.5t158.5 167.5l221 1042h149l-221 -1044q-26 -104 -116.5 -193.5t-220.5 -142.5t-265 -53q-216 0 -348 114q-112 97 -112 227q0 22 3 46z" />
<glyph unicode="V" horiz-adv-x="1308" d="M354 1415h154l186 -1165q52 91 150 257t133 226q272 464 395 682h156l-821 -1415h-132z" />
<glyph unicode="W" horiz-adv-x="1873" d="M367 1415h153l187 -1167q63 105 127 221v-2q26 45 76 131t75 131q-10 58 -26.5 169t-24.5 159v-2q-27 189 -55 360h153l88 -559q9 -58 26.5 -158.5t24.5 -142.5q47 -302 48 -307q51 85 140.5 240.5t117.5 203.5q69 121 211 365t208 358h158l-821 -1415h-133l-82 514 q-37 -61 -131 -227q-84 -145 -164 -287h-133z" />
<glyph unicode="X" horiz-adv-x="1107" d="M29 0l575 723l-258 692h172l213 -553q47 59 207 256q112 138 238 297h174l-562 -704q65 -178 121 -336q45 -126 142 -375h-174l-220 573q-273 -343 -274 -344q-24 -31 -88 -109.5t-94 -119.5h-172z" />
<glyph unicode="Y" horiz-adv-x="1394" d="M319 1415h195l328 -635q133 137 159 166q63 68 138.5 147t169 176t139.5 146h192l-751 -782l-133 -633h-152l133 633q-80 151 -114 217q-21 39 -304 565z" />
<glyph unicode="Z" horiz-adv-x="1122" d="M23 0l1056 1266h-706l30 149h971l-1052 -1265h690l-31 -150h-958z" />
<glyph unicode="[" horiz-adv-x="430" d="M190 641l31 147h74q21 0 40 15.5t23 38.5l95 448q19 45 77 75t125 30l-30 -152q-6 0 -15.5 -1.5t-13 -2t-6.5 1.5l-90 -426q-24 -40 -47 -62.5t-56 -27.5l-4 -20q28 -9 45.5 -30t20.5 -50l-101 -480h33l-31 -145q-61 0 -113 36t-42 89l100 463q4 23 -8 38t-33 15h-74z " />
<glyph unicode="\" horiz-adv-x="759" d="M348 1395h154l217 -1395h-158z" />
<glyph unicode="]" horiz-adv-x="374" d="M29 0l30 145h37l101 476q31 74 96 86q2 8 6 20q-28 11 -44.5 33.5t-16.5 50.5l92 432h-37l31 152q73 0 116 -30.5t43 -74.5l2 -16l-92 -432q-10 -54 33 -54h74l-31 -147h-74q-21 0 -35.5 -14.5t-19.5 -38.5l-100 -463q-10 -53 -76.5 -89t-134.5 -36z" />
<glyph unicode="^" horiz-adv-x="1128" d="M219 895l631 512l403 -514l-129 -105l-321 412q-102 -81 -234 -192q-100 -81 -268 -220z" />
<glyph unicode="_" horiz-adv-x="1050" d="M61 0l31 145h877l-31 -145h-877z" />
<glyph unicode="`" horiz-adv-x="417" d="M248 1294h239l125 -231h-118z" />
<glyph unicode="a" horiz-adv-x="831" d="M123 303q30 140 154.5 234t269.5 94h186l2 6q9 42 9 79q0 55 -20 99q-33 73 -108 76q-115 0 -254 -39l-6 143q159 43 293 43q127 -3 197 -107q52 -77 52 -178q0 -36 -7 -75l-4 -21q-39 -165 -74 -323q-25 -114 -29 -203q-1 -16 0 -30q0 -66 17 -101h-201l8 39 q-105 -59 -213 -59q-141 0 -221 95q-59 70 -59 160q0 33 8 68zM270 303q-4 -18 -4 -34q0 -50 36 -88q46 -50 126 -50q83 0 152 50t84 122l38 180h-186q-87 0 -158 -50t-88 -130z" />
<glyph unicode="b" horiz-adv-x="1071" d="M53 0q24 26 47.5 79.5t35.5 93.5l11 40l250 1182h148l-86 -404q118 47 262 47q134 0 233 -71.5t139 -192.5q23 -70 23 -147q0 -56 -12 -115q-46 -217 -224.5 -372t-385.5 -160q-162 10 -244 51l-6 -31h-191zM289 213q-1 -3 -1 -6q0 -29 64 -51q70 -24 176 -27 q142 3 268 115t160 268q9 42 9 83q-1 55 -17 105q-28 88 -97 139.5t-161 51.5q-95 0 -174 -22t-100 -52z" />
<glyph unicode="c" horiz-adv-x="978" d="M135 510q31 143 124 265t221 192.5t259 70.5q103 0 191 -49.5t147 -134.5l-129 -109q-42 68 -104.5 107t-134.5 39q-143 0 -268.5 -111.5t-159.5 -269.5q-9 -46 -10 -87q0 -102 56 -181q78 -111 220 -111q143 0 293 137l88 -104q-215 -182 -412 -182q-131 0 -229.5 71 t-140.5 193q-24 71 -24 148q0 56 13 116z" />
<glyph unicode="d" horiz-adv-x="1093" d="M195 518q46 214 223.5 366t380.5 154q156 0 239 -49l86 406h148l-250 -1178q-4 -17 -8 -44q-1 -9 -1 -23q1 -24 5 -61q6 -57 33 -83h-222l7 31q-110 -41 -258 -51q-133 3 -232 74.5t-140 193.5q-24 70 -24 147q0 57 13 117zM338 518q-9 -44 -9 -86q-1 -54 15 -104 q28 -88 97.5 -140t166.5 -55q103 4 181.5 29t84.5 55l127 596q-6 31 -72.5 54.5t-160.5 23.5q-147 -4 -272.5 -113.5t-157.5 -259.5z" />
<glyph unicode="e" horiz-adv-x="933" d="M137 473l8 39q46 217 202 372.5t327 155.5q174 0 260 -149q56 -97 57 -225q0 -68 -16 -144l-19 -80h-673q-2 -22 -2 -43q-1 -107 51 -181q62 -88 172 -89q97 0 280 80l31 -129q-142 -71 -289 -96q-16 -2 -53 -2q-113 0 -197 65t-122 178q-24 72 -25 154q0 46 8 94z M317 586h523q2 24 2 46q0 102 -45 173q-55 86 -154 86q-92 0 -184 -87.5t-142 -217.5z" />
<glyph unicode="f" horiz-adv-x="671" d="M197 0l180 856h-146l33 150h144v12l6 26q39 146 153 252.5t236 106.5q57 0 135 -10l-76 -150q-49 12 -90 12q-71 -3 -134 -70t-83 -163l-4 -16h252l-33 -150h-252l-180 -856h-141z" />
<glyph unicode="g" horiz-adv-x="1128" d="M41 -43q18 85 86 160.5t162 120.5q-1 5 -1 12q0 22 9 61q7 42 45 99q-79 77 -79 192q0 34 7 72q21 98 94.5 182t179.5 133t218 49q65 0 151 -20h398l-170 -148h-60q28 -63 28 -128q0 -34 -7 -68q-32 -153 -176 -258t-318 -105q-42 0 -96 13q-33 10 -55 10q-30 0 -35 -19 q-3 -17 5.5 -22.5t23.5 -5.5h10q2 0 5 1t5 1h4q16 4 55 4q176 0 277 -98q78 -76 78 -178q0 -29 -6 -60q-19 -92 -91 -170.5t-178.5 -125t-222.5 -46.5q-169 0 -272 101q-80 80 -80 182q0 28 6 59zM186 -43q-3 -16 -3 -31q0 -61 55 -108q68 -60 178 -60q116 0 210 59.5 t111 139.5q3 16 3 30q0 61 -55 108q-69 59 -185 59q-110 0 -203.5 -59t-110.5 -138zM416 674q-4 -20 -4 -39q0 -66 51 -116q66 -64 176 -64q116 0 208 64t111 155q5 22 5 42q0 66 -50 115q-65 64 -182 64q-110 0 -202.5 -64.5t-112.5 -156.5z" />
<glyph unicode="h" horiz-adv-x="931" d="M72 0l297 1399h145l-96 -449q118 90 254 90q148 0 226 -111q56 -80 57 -185q0 -42 -9 -87l-133 -651h-145l139 651q4 24 4 47q0 70 -39 122q-52 70 -143 69q-72 0 -150 -64t-119 -149l-143 -682h-145z" />
<glyph unicode="i" horiz-adv-x="362" d="M100 0l217 1026h144l-217 -1026h-144zM356 1282q6 34 36.5 59t68.5 25q35 0 57.5 -25t16.5 -59q-7 -34 -40.5 -60t-68.5 -26q-38 0 -58 26t-12 60z" />
<glyph unicode="j" horiz-adv-x="724" d="M-4 -373l41 142q49 0 84 -5q6 -2 8 -2l4 7q79 0 147.5 65t88.5 158l219 1036h145l-223 -1055q-39 -146 -149.5 -248t-239.5 -106q-20 0 -74 4q-8 4 -51 4zM623 1272q9 38 37.5 61t68.5 23q31 0 52 -24t12 -60q-6 -33 -37.5 -59.5t-61.5 -26.5q-38 0 -57.5 25.5 t-13.5 60.5z" />
<glyph unicode="k" horiz-adv-x="901" d="M43 0q25 22 50.5 57.5t31.5 63.5l270 1274h148l-137 -652q20 15 113.5 83t142.5 102q112 83 118 88h232l-404 -285q7 -21 78 -209q182 -507 188 -522h-174l-227 633q-12 -8 -49 -36t-59 -44l-117 -553h-205z" />
<glyph unicode="l" horiz-adv-x="331" d="M100 0l295 1395h146l-295 -1395h-146z" />
<glyph unicode="m" horiz-adv-x="1513" d="M70 0l190 901q2 9 2 20q0 20 -6 46q-10 41 -27 59h205l-16 -80q112 90 248 90q93 0 161 -45.5t101 -124.5q68 88 157.5 131t176.5 43q146 0 224 -110q57 -81 57 -189q0 -40 -7 -84l-135 -653h-148l140 653q4 25 4 49q1 67 -35 118q-48 69 -139 69q-77 0 -155.5 -64 t-115.5 -147l-143 -678h-147l137 649q6 29 6 55q0 65 -36 113q-50 68 -142 68q-74 0 -151.5 -64t-115.5 -147l-143 -678h-147z" />
<glyph unicode="n" horiz-adv-x="886" d="M57 0l191 905q6 24 -5.5 58.5t-27.5 54.5h203l-15 -66q109 90 256 90q146 0 225 -112q58 -82 58 -190q0 -40 -8 -83l-135 -657h-148l140 657q6 28 6 53q0 66 -38 116q-52 70 -143 69q-76 0 -153 -63.5t-117 -149.5l-143 -682h-146z" />
<glyph unicode="o" horiz-adv-x="1050" d="M133 508q47 219 222.5 374.5t373.5 155.5q132 0 228 -71t134 -193q21 -67 21 -141q0 -60 -14 -125q-46 -217 -220 -372.5t-374 -155.5q-130 0 -226 71t-136 193q-22 69 -22 145q0 58 13 119zM283 508q-10 -47 -10 -91q0 -100 52 -177q74 -111 212 -111q137 0 258 111.5 t153 267.5q10 48 10 93q0 52 -14 99q-26 88 -91 139.5t-155 51.5q-138 0 -259.5 -112.5t-155.5 -270.5z" />
<glyph unicode="p" horiz-adv-x="1036" d="M-16 -375l249 1192q3 16 7 42q1 13 1 33.5t-1 48.5q-4 56 -23 83h207l-8 -33q141 53 266 53q135 -3 233.5 -74.5t138.5 -191.5q24 -69 24 -144q0 -56 -13 -116q-31 -146 -122.5 -269t-220.5 -194t-265 -71q-149 0 -242 49l-86 -408h-145zM250 209q4 -29 72.5 -51 t164.5 -27q147 5 273 116.5t160 270.5q10 46 10 89q0 99 -56 177q-80 111 -225 111q-103 0 -182.5 -23.5t-87.5 -54.5z" />
<glyph unicode="q" horiz-adv-x="1050" d="M168 528q22 103 80.5 197.5t137.5 162.5t176 109t192 41q152 0 237 -43l4 21h146l-295 -1391h-146l95 445q-106 -50 -256 -50q-127 3 -223 71t-136 184q-24 68 -24 142q0 54 12 111zM311 528q-9 -44 -9 -84q0 -97 53 -172q75 -105 212 -110q94 0 168.5 22.5t93.5 55.5 l123 577q5 20 -24 38t-84 29t-121 11q-138 0 -259 -107.5t-153 -259.5z" />
<glyph unicode="r" horiz-adv-x="571" d="M63 0l191 901q2 8 2 16q0 23 -12 49q-16 36 -51 62h235l-16 -80q113 90 250 90q42 0 83 -18l-67 -143q-41 14 -57 14q-76 0 -153.5 -63.5t-113.5 -149.5l-143 -678h-148z" />
<glyph unicode="s" horiz-adv-x="854" d="M102 147l129 86q36 -46 93 -74t118 -28q86 0 155.5 39.5t82.5 99.5q2 8 2 17q0 44 -45 87q-53 52 -131 75q-128 23 -208 115q-62 72 -63 151q0 22 5 45q27 122 147 199t266 77q94 0 179 -42.5t139 -112.5l-137 -86q-38 44 -96 69t-124 25q-84 0 -148.5 -36.5t-76.5 -94.5 q-2 -11 -3 -22q0 -45 40 -84q50 -49 137 -64q135 -22 210 -114q57 -70 58 -152q0 -25 -6 -52q-27 -125 -145 -205.5t-262 -80.5q-95 0 -183.5 43.5t-132.5 119.5z" />
<glyph unicode="t" horiz-adv-x="696" d="M223 0l183 864h-146l33 150h141l80 381h150l-80 -381h258l-33 -150h-258l-182 -864h-146z" />
<glyph unicode="u" horiz-adv-x="921" d="M150 365l141 657h145l-137 -643v-10q-3 -22 -3 -43q0 -70 38 -124q50 -70 139 -69q75 0 152 65t112 148l146 680h147l-190 -899q-3 -12 -3 -25q1 -20 7 -42q10 -38 26 -60h-204l14 74q-123 -92 -252 -92q-142 0 -221 109q-58 80 -58 188q0 38 7 79z" />
<glyph unicode="v" horiz-adv-x="1024" d="M231 1026h156l158 -793q175 288 346 566q11 17 63.5 102.5t77.5 124.5h162l-637 -1026h-129z" />
<glyph unicode="w" horiz-adv-x="1443" d="M227 1026h158l154 -786q9 14 31 48.5t36 55.5q90 146 111 180q-26 159 -49 269q-26 128 -43 233h163l148 -790q187 300 487 790h162l-637 -1026l-129 6l-59 322q-28 -41 -77 -119t-58 -92q-40 -61 -74 -117l-125 6z" />
<glyph unicode="x" horiz-adv-x="909" d="M16 0l437 532l-209 494h178l149 -364q36 44 106.5 124.5t94.5 108.5q22 24 63 71.5t52 59.5h176l-430 -510q95 -234 125 -305q11 -26 42 -103t46 -108h-174l-164 385q-12 -14 -34 -41t-36 -43h2q-35 -43 -120 -146t-127 -155h-177z" />
<glyph unicode="y" horiz-adv-x="1095" d="M2 -369l59 170q31 -41 80 -41q61 0 125.5 42t108.5 116q8 15 17.5 30t21 34t18.5 30t23.5 39t27.5 45q-20 114 -24 142q-12 62 -71.5 365t-86.5 435h158l139 -753l133 218.5t162 266.5q55 93 164 268h157l-585 -950q-9 -15 -28 -45t-28 -45q-11 -19 -38.5 -64.5 t-40.5 -68.5q-67 -115 -175.5 -182.5t-209.5 -67.5q-48 0 -107 16z" />
<glyph unicode="z" horiz-adv-x="925" d="M70 0l26 129l725 750h-559l31 147h766l-27 -127l-725 -752h565l-30 -147h-772z" />
<glyph unicode="{" horiz-adv-x="456" d="M190 641l31 147h74q21 0 40 15.5t23 38.5l95 448q19 45 77 75t125 30l-30 -152q-6 0 -15.5 -1.5t-13 -2t-6.5 1.5l-90 -426q-24 -40 -47 -62.5t-56 -27.5l-4 -20q28 -9 45.5 -30t20.5 -50l-101 -480h33l-31 -145q-61 0 -113 36t-42 89l100 463q4 23 -8 38t-33 15h-74z " />
<glyph unicode="|" horiz-adv-x="268" d="M82 2l305 1442h117l-305 -1442h-117z" />
<glyph unicode="}" horiz-adv-x="385" d="M29 0l30 145h37l101 476q31 74 96 86q2 8 6 20q-28 11 -44.5 33.5t-16.5 50.5l92 432h-37l31 152q73 0 116 -30.5t43 -74.5l2 -16l-92 -432q-10 -54 33 -54h74l-31 -147h-74q-21 0 -35.5 -14.5t-19.5 -38.5l-100 -463q-10 -53 -76.5 -89t-134.5 -36z" />
<glyph unicode="~" horiz-adv-x="710" d="M172 659q115 70 234 70q32 0 100 -22l-2 2q2 0 7.5 -1t6.5 -1q53 -17 70 -17q87 0 178 62l27 -123q-116 -70 -226 -70q-78 0 -129 31q-32 8 -57 8q-87 0 -172 -61z" />
<glyph unicode="&#xa1;" horiz-adv-x="327" d="M94 0l254 1196h133l-254 -1196h-133zM362 1319l3 4q6 32 33 56t61 24q30 0 48.5 -24.5t12.5 -55.5q-7 -33 -35 -56.5t-59 -23.5q-38 0 -53.5 21.5t-10.5 54.5z" />
<glyph unicode="&#xa2;" horiz-adv-x="978" d="M135 510q43 197 194 345.5t333 174.5l28 135h156l-29 -135q77 -13 144 -60t116 -116l-129 -109q-65 113 -162 136l-157 -744q100 30 215 129l84 -102q-179 -155 -332 -176l-27 -131h-155l26 133q-163 36 -253.5 184.5t-51.5 335.5zM281 510q-28 -135 26 -240t166 -133 l158 744q-124 -26 -222.5 -130.5t-127.5 -240.5z" />
<glyph unicode="&#xa3;" horiz-adv-x="1138" d="M154 578l32 147h232l141 670h148l-142 -670h350l-32 -147h-351l-90 -433h648l-31 -145h-795l121 578h-231z" />
<glyph unicode="&#xa5;" horiz-adv-x="1394" d="M319 1395h193l322 -627q99 104 299 314t299 313h190l-739 -772l-6 -31h280l-33 -150h-280v-8h280l-32 -149h-281l-59 -285h-152l59 285h-280l33 149h280v8h-280l32 150h281l6 31q-163 310 -260 489q-54 96 -152 283z" />
<glyph unicode="&#xa6;" horiz-adv-x="268" d="M82 2l154 725h116l-153 -725h-117zM248 788l139 656h117l-139 -656h-117z" />
<glyph unicode="&#xa7;" horiz-adv-x="729" d="M76 47l92 125q85 -43 154 -43q50 0 95 19.5t68 52.5q-35 -6 -75 -6q-106 0 -213 61l92 131q85 -45 155 -45q30 0 54 6q-23 52 -105 101q-95 54 -143 145t-29 180q21 114 113 176l8 35q24 116 124 185t226 69q98 0 215 -57l-92 -140q-88 52 -158 52q-47 0 -89.5 -19.5 t-65.5 -52.5q20 4 69 4q93 0 220 -59l-93 -136q-92 50 -161 50q-9 0 -17 2.5t-14 -2.5q27 -56 98 -95h-2q98 -52 143 -140.5t25 -182.5q-23 -103 -113 -180l-8 -33q-17 -81 -73 -143.5t-130.5 -93.5t-152.5 -31q-96 0 -217 65zM369 766q-11 -51 20.5 -103.5t95.5 -87.5 q91 -53 133 -124q2 3 7 16q10 49 -24 105t-93 92h2q-91 42 -135 122q-2 -4 -4 -11.5t-2 -8.5zM598 406v2l2 6q14 24 18 37q14 -22 17 -37z" />
<glyph unicode="&#xa8;" horiz-adv-x="538" d="M324 1282q6 34 37.5 59t66.5 25q34 0 56 -25.5t16 -58.5q-7 -34 -40 -60t-67 -26q-35 0 -56 26t-13 60zM580 1282q6 34 37.5 59t66.5 25t57.5 -25t16.5 -59q-7 -34 -40.5 -60t-68.5 -26t-56 26t-13 60z" />
<glyph unicode="&#xaa;" horiz-adv-x="366" d="M182 754q12 60 65 100.5t122 40.5h28q0 12 -5 20.5t-11 8.5q-34 0 -119 -23l2 117q82 20 142 20q55 0 85.5 -47t18.5 -119q-13 -53 -25 -108q-6 -32 5 -78t32 -72l-155 2q-25 -10 -64 -10q-65 0 -100 43t-21 105zM297 754q-3 -11 7.5 -21t25.5 -10q13 0 26.5 10t16.5 21 l6 28h-37q-15 0 -29 -9.5t-16 -18.5z" />
<glyph unicode="&#xab;" horiz-adv-x="1089" d="M150 571l659 471l72 -112l-531 -379q24 -41 70 -113.5t57 -91.5q18 -27 72.5 -109.5t79.5 -123.5l-129 -99zM475 571l660 471l71 -112l-530 -379q8 -15 24.5 -39t24.5 -39q125 -189 229 -362l-129 -97z" />
<glyph unicode="&#xac;" horiz-adv-x="1355" d="M209 664l31 145h1179l-104 -496h-146l74 351h-1034z" />
<glyph unicode="&#xad;" horiz-adv-x="862" d="M172 524l31 148h729l-31 -148h-729z" />
<glyph unicode="&#xb0;" horiz-adv-x="512" d="M276 1180q20 95 98.5 159t176.5 64q90 0 139 -64t29 -159q-20 -91 -96.5 -154t-165.5 -63q-98 0 -149.5 63t-31.5 154zM397 1180q-9 -40 17 -71.5t67 -31.5q34 0 71 32t46 71q9 41 -14.5 74.5t-57.5 33.5q-41 0 -80.5 -33.5t-48.5 -74.5z" />
<glyph unicode="&#xb1;" horiz-adv-x="925" d="M150 297l30 145h727l-30 -145h-727zM276 883l31 147h289l63 291h148l-64 -291h291l-30 -147h-291l-62 -291h-147l61 291h-289z" />
<glyph unicode="&#xb2;" horiz-adv-x="573" d="M170 608l20 105l381 344q19 14 34 39.5t20 48.5q12 53 -21 92t-86 39t-145 -74l-74 96q148 105 246 105q110 0 169 -76t36 -182q-16 -89 -109 -182l-252 -230h275l-27 -125h-467z" />
<glyph unicode="&#xb3;" horiz-adv-x="542" d="M145 713l88 71h41q19 -27 48.5 -44t58.5 -17q47 0 92.5 32.5t54.5 75.5t-20 76t-72 39h-133l27 125h137q41 2 83.5 34t49.5 69q8 37 -23.5 66.5t-78.5 29.5q-65 0 -156 -82l-70 98q124 109 252 109q105 0 165 -64.5t40 -156.5q-22 -115 -115 -173q57 -78 39 -170 q-22 -98 -108 -164.5t-191 -66.5q-127 0 -209 113z" />
<glyph unicode="&#xb4;" horiz-adv-x="428" d="M252 1063l223 231h236l-340 -231h-119z" />
<glyph unicode="&#xb6;" horiz-adv-x="782" d="M252 1044q31 146 153 248.5t267 102.5h184l-295 -1395h-217l148 696q-127 17 -197 117t-43 231zM397 1053q-17 -77 12 -135.5t91 -65.5l86 401q-67 -9 -119.5 -65t-69.5 -135zM541 4l295 1389h143l-295 -1389h-143z" />
<glyph unicode="&#xb7;" horiz-adv-x="460" d="M227 635q11 49 60 90t104 41q54 0 87 -41.5t22 -89.5q-9 -48 -59 -86.5t-105 -38.5t-86.5 38t-22.5 87z" />
<glyph unicode="&#xb9;" horiz-adv-x="538" d="M276 1163l328 232h125l-137 -645h-148l95 436q-27 -20 -79.5 -55.5t-74.5 -51.5q-10 -3 -25 -18z" />
<glyph unicode="&#xba;" horiz-adv-x="475" d="M199 813q20 98 92 161.5t162 63.5q83 0 127 -64t24 -161q-20 -90 -91 -152.5t-153 -62.5q-89 0 -135 62t-26 153zM313 813q-8 -37 13.5 -68.5t56.5 -31.5q31 0 63.5 31.5t40.5 68.5q9 42 -9.5 76.5t-49.5 34.5q-35 0 -70.5 -34t-44.5 -77z" />
<glyph unicode="&#xbb;" horiz-adv-x="1073" d="M127 111l467 440q-144 152 -234 242q-43 41 -139 137l123 112l457 -471l-586 -557zM453 111l467 440q-144 152 -234 242q-43 41 -139 137l123 112l456 -471l-585 -557z" />
<glyph unicode="&#xbc;" horiz-adv-x="782" d="M223 907l185 131h86l-134 -628h-108l100 475l-33 -25q-19 -11 -36 -26zM336 246l18 82l326 411l84 -49l-270 -338h108l31 146h106l-30 -146h94l-23 -106h-94l-51 -246h-107l52 246h-244z" />
<glyph unicode="&#xbd;" horiz-adv-x="727" d="M199 907l184 133h86l-133 -630h-107l103 477l-37 -25q-17 -10 -37 -26zM242 0l16 84l358 326q42 33 52 84q12 57 -20 95t-89 38q-48 0 -131 -60l-57 74q124 92 211 92q103 0 158.5 -69t33.5 -170q-19 -83 -102 -162l-252 -228h270l-20 -104h-428z" />
<glyph unicode="&#xbe;" horiz-adv-x="937" d="M115 401l94 70q45 -68 108 -68q54 0 100.5 33.5t55.5 79.5q13 60 -53.5 89.5t-163.5 15.5l25 112h120q51 3 92 31t50 67q9 43 -22 74t-85 31q-67 0 -145 -68l-60 76q113 96 226 96q98 0 155.5 -60.5t38.5 -148.5q-20 -94 -116 -153q66 -66 45 -162q-20 -92 -102.5 -155.5 t-182.5 -63.5q-109 0 -180 104zM483 248l19 84l327 409l86 -47l-266 -338h101l32 146h109l-33 -146h94l-22 -108h-94l-52 -244h-108l51 244h-244z" />
<glyph unicode="&#xbf;" horiz-adv-x="884" d="M154 377q34 159 171 278t289 119h62q-12 165 -12 180q-18 180 -39 441h155l51 -645l-26 -125h-223q-97 -3 -180 -74.5t-105 -173.5q-22 -100 33.5 -173t156.5 -73q65 0 134 42t129 114l84 -107q-80 -92 -180 -146t-199 -54q-159 0 -247.5 117.5t-53.5 279.5zM612 1542 q7 40 36 64t69 24q33 0 52.5 -24.5t12.5 -63.5q-9 -36 -39 -61t-63 -25q-39 0 -58 24.5t-10 61.5z" />
<glyph unicode="&#xc0;" d="M31 0l821 1415h113l223 -1415h-156l-88 559h-430q-108 -181 -213 -362q-87 -144 -117 -197h-153zM598 709h322q-4 34 -16.5 108t-16.5 101v-3q-29 161 -37 224q-50 -78 -96 -164l-2 -2q-113 -194 -154 -264zM657 1686h240l125 -232h-119z" />
<glyph unicode="&#xc1;" d="M31 0l821 1415h113l223 -1415h-156l-88 559h-430q-108 -181 -213 -362q-87 -144 -117 -197h-153zM598 709h322q-4 34 -16.5 108t-16.5 101v-3q-29 161 -37 224q-50 -78 -96 -164l-2 -2q-113 -194 -154 -264zM840 1454l223 232h235l-340 -232h-118z" />
<glyph unicode="&#xc2;" d="M31 0l821 1415h113l223 -1415h-156l-88 559h-430q-108 -181 -213 -362q-87 -144 -117 -197h-153zM598 709h322q-4 34 -16.5 108t-16.5 101v-3q-29 161 -37 224q-50 -78 -96 -164l-2 -2q-113 -194 -154 -264z" />
<glyph unicode="&#xc3;" d="M51 35l821 1415h113l223 -1415h-155l-88 559h-430q-91 -152 -213 -363q-95 -156 -117 -196h-154zM618 743h322q-4 34 -16.5 108t-16.5 101v-2q-29 161 -37 224q-50 -78 -96 -164l-2 -2q-63 -107 -154 -265zM655 1606q118 67 226 67q37 0 100 -14h-4q0 -2 2 -2 q53 -17 74 -17q93 0 168 56l30 -117q-106 -68 -223 -68q-61 0 -115 23q-30 10 -59 10q-80 0 -164 -53z" />
<glyph unicode="&#xc4;" d="M31 0l821 1415h113l223 -1415h-156l-88 559h-430q-108 -181 -213 -362q-87 -144 -117 -197h-153zM598 709h322q-4 34 -16.5 108t-16.5 101v-3q-29 161 -37 224q-50 -78 -96 -164l-2 -2q-113 -194 -154 -264zM707 1513q6 34 37.5 59t66.5 25q34 0 56 -25.5t16 -58.5 q-7 -34 -40 -60t-67 -26q-35 0 -56 26t-13 60zM963 1513q6 34 37.5 59t66.5 25t57.5 -25t16.5 -59q-7 -34 -40.5 -60t-68.5 -26t-56 26t-13 60z" />
<glyph unicode="&#xc6;" horiz-adv-x="2213" d="M37 0l823 1415h1313l-31 -145h-696l-94 -445h596l-31 -149h-596l-113 -526h697l-31 -150h-846l119 559h-627q-19 -33 -155 -268q-57 -95 -170 -291h-158zM606 709h572l137 561h-389q-10 -19 -164 -287q-6 -10 -156 -274z" />
<glyph unicode="&#xc7;" horiz-adv-x="1298" d="M233 700q42 200 164.5 366.5t292 261.5t346.5 95q127 0 235.5 -59t184.5 -166l-127 -98q-60 85 -144.5 131.5t-178.5 46.5q-137 0 -269.5 -78.5t-227 -211.5t-128.5 -288q-33 -152 5.5 -283.5t138.5 -210.5t237 -79q92 0 194.5 46.5t198.5 127.5l84 -100 q-240 -205 -494 -217q29 -20 46.5 -53t9.5 -68q-14 -81 -166 -156l-137 121q46 0 107.5 9.5t66.5 29.5q2 9 -10.5 15.5t-26.5 9t-25 2.5h-51l27 106q-204 58 -305.5 252.5t-47.5 447.5z" />
<glyph unicode="&#xc8;" horiz-adv-x="993" d="M68 0l299 1415h843l-30 -145h-697l-94 -445h594l-31 -149h-594l-112 -526h696l-31 -150h-843zM516 1686h240l125 -232h-119z" />
<glyph unicode="&#xc9;" horiz-adv-x="993" d="M68 0l299 1415h843l-30 -145h-697l-94 -445h594l-31 -149h-594l-112 -526h696l-31 -150h-843zM670 1454l223 232h235l-340 -232h-118z" />
<glyph unicode="&#xcb;" horiz-adv-x="993" d="M68 0l299 1415h843l-30 -145h-697l-94 -445h594l-31 -149h-594l-112 -526h696l-31 -150h-843zM592 1516q6 34 37.5 58.5t66.5 24.5q34 0 56 -25t16 -58q-7 -34 -39.5 -60t-66.5 -26q-35 0 -56.5 26t-13.5 60zM848 1516q6 34 37.5 58.5t66.5 24.5t57.5 -24.5t16.5 -58.5 q-8 -34 -40.5 -60t-67.5 -26t-56.5 26t-13.5 60z" />
<glyph unicode="&#xcc;" horiz-adv-x="268" d="M84 0l299 1415h149l-299 -1415h-149zM215 1686h240l125 -232h-119z" />
<glyph unicode="&#xcd;" horiz-adv-x="315" d="M68 0l299 1415h149l-299 -1415h-149zM371 1454l223 232h235l-340 -232h-118z" />
<glyph unicode="&#xce;" horiz-adv-x="282" d="M68 0l299 1415h149l-299 -1415h-149z" />
<glyph unicode="&#xcf;" horiz-adv-x="282" d="M68 0l299 1415h149l-299 -1415h-149zM240 1513q6 34 37.5 59t66.5 25q34 0 56 -25.5t16 -58.5q-7 -34 -40 -60t-67 -26q-35 0 -56 26t-13 60zM496 1513q6 34 37.5 59t66.5 25t57.5 -25t16.5 -59q-7 -34 -40.5 -60t-68.5 -26t-56 26t-13 60z" />
<glyph unicode="&#xd0;" horiz-adv-x="1337" d="M182 535l31 147h131l156 733h530q104 -1 185.5 -57t127.5 -151.5t60 -223t-19 -272.5q-40 -192 -140 -353.5t-235 -257t-274 -100.5h-534l112 535h-131zM381 150q121 0 184 2q34 0 101 1t100 1q148 5 285 167.5t184 389.5q30 156 12 278.5t-84.5 198.5t-163.5 78h-381 l-124 -584h340l-31 -147h-340z" />
<glyph unicode="&#xd1;" horiz-adv-x="1099" d="M74 0l299 1415h133l414 -1091l231 1091h149l-299 -1415h-135l-413 1098l-232 -1098h-147zM578 1569q96 47 182 47q43 0 114 -23q3 -1 8.5 -3t8.5 -3q50 -26 100 -26q57 0 139 45l17 -123q-90 -49 -182 -49q-95 0 -183 65l35 -24q-35 14 -86 14q-52 0 -133 -43z" />
<glyph unicode="&#xd2;" horiz-adv-x="1413" d="M174.5 473.5q-8.5 109.5 15.5 233.5q41 195 162.5 360t291 260.5t345.5 95.5q109 0 201.5 -36t156.5 -101t105 -154.5t47.5 -196.5t-16.5 -228q-67 -318 -309 -527q-223 -198 -490 -198q-103 0 -193 36t-156 100.5t-109 155t-51.5 200zM342 707q-33 -156 4.5 -288 t135 -209t233.5 -77q140 0 271.5 77t224 208.5t126.5 288.5q26 125 7.5 232.5t-78.5 182.5q-49 72 -130 111t-180 39q-135 0 -264.5 -75t-223 -205t-126.5 -285zM702 1686h240l125 -232h-119z" />
<glyph unicode="&#xd3;" horiz-adv-x="1413" d="M174.5 473.5q-8.5 109.5 15.5 233.5q41 195 162.5 360t291 260.5t345.5 95.5q109 0 201.5 -36t156.5 -101t105 -154.5t47.5 -196.5t-16.5 -228q-67 -318 -309 -527q-223 -198 -490 -198q-103 0 -193 36t-156 100.5t-109 155t-51.5 200zM342 707q-33 -156 4.5 -288 t135 -209t233.5 -77q140 0 271.5 77t224 208.5t126.5 288.5q26 125 7.5 232.5t-78.5 182.5q-49 72 -130 111t-180 39q-135 0 -264.5 -75t-223 -205t-126.5 -285zM952 1454l224 232h235l-340 -232h-119z" />
<glyph unicode="&#xd5;" horiz-adv-x="1413" d="M174.5 473.5q-8.5 109.5 15.5 233.5q41 195 162.5 360t291 260.5t345.5 95.5q109 0 201.5 -36t156.5 -101t105 -154.5t47.5 -196.5t-16.5 -228q-67 -318 -309 -527q-223 -198 -490 -198q-103 0 -193 36t-156 100.5t-109 155t-51.5 200zM342 707q-33 -156 4.5 -288 t135 -209t233.5 -77q140 0 271.5 77t224 208.5t126.5 288.5q26 125 7.5 232.5t-78.5 182.5q-49 72 -130 111t-180 39q-135 0 -264.5 -75t-223 -205t-126.5 -285zM733 1571q96 47 182 47q44 0 115 -23q3 -1 8.5 -3t8.5 -3q50 -26 100 -26q57 0 139 45l17 -123 q-90 -49 -183 -49q-94 0 -182 65l35 -24q-35 14 -86 14q-52 0 -133 -43z" />
<glyph unicode="&#xd6;" horiz-adv-x="1413" d="M174.5 473.5q-8.5 109.5 15.5 233.5q41 195 162.5 360t291 260.5t345.5 95.5q109 0 201.5 -36t156.5 -101t105 -154.5t47.5 -196.5t-16.5 -228q-67 -318 -309 -527q-223 -198 -490 -198q-103 0 -193 36t-156 100.5t-109 155t-51.5 200zM342 707q-33 -156 4.5 -288 t135 -209t233.5 -77q140 0 271.5 77t224 208.5t126.5 288.5q26 125 7.5 232.5t-78.5 182.5q-49 72 -130 111t-180 39q-135 0 -264.5 -75t-223 -205t-126.5 -285zM803 1516q6 34 37.5 58.5t66.5 24.5q34 0 56 -25t16 -58q-7 -34 -40 -60t-67 -26q-35 0 -56 26t-13 60z M1059 1516q6 34 37.5 58.5t66.5 24.5t57.5 -24.5t16.5 -58.5q-7 -34 -40.5 -60t-68.5 -26t-56 26t-13 60z" />
<glyph unicode="&#xd7;" horiz-adv-x="751" d="M133 430l252 207l-162 205l125 104l162 -205l250 205l82 -102l-250 -207l162 -207l-123 -102l-164 207l-250 -207z" />
<glyph unicode="&#xd8;" horiz-adv-x="1413" d="M190 707q41 195 162.5 360t291 260.5t345.5 95.5q87 0 170 -26l10 18h152l-37 -76q134 -98 187.5 -265t11.5 -367q-67 -318 -309 -527q-223 -198 -490 -198q-83 0 -164 24v-6h-168l39 70q-134 88 -190 258t-11 379zM342 707q-33 -159 2 -288.5t129 -205.5 q215 371 358 616q28 48 112.5 195t133.5 231q-52 17 -121 17q-135 0 -264.5 -75t-223 -205t-126.5 -285zM596 150q52 -17 119 -17q140 0 271.5 77t224 208.5t126.5 288.5q26 125 7.5 232.5t-78.5 182.5q-32 43 -66 72q-23 -40 -82.5 -142t-93.5 -159q-72 -125 -213.5 -371.5 t-214.5 -371.5z" />
<glyph unicode="&#xd9;" horiz-adv-x="1224" d="M143 369l222 1046h155l-221 -1042q-5 -96 90.5 -168t241.5 -72q139 0 263.5 72.5t158.5 167.5l221 1042h149l-221 -1044q-26 -104 -116.5 -193.5t-220.5 -142.5t-265 -53q-216 0 -348 113.5t-109 273.5zM645 1686h240l125 -232h-119z" />
<glyph unicode="&#xda;" horiz-adv-x="1224" d="M143 369l222 1046h155l-221 -1042q-5 -96 90.5 -168t241.5 -72q139 0 263.5 72.5t158.5 167.5l221 1042h149l-221 -1044q-26 -104 -116.5 -193.5t-220.5 -142.5t-265 -53q-216 0 -348 113.5t-109 273.5zM831 1454l224 232h235l-340 -232h-119z" />
<glyph unicode="&#xdc;" horiz-adv-x="1224" d="M143 369l222 1046h155l-221 -1042q-5 -96 90.5 -168t241.5 -72q139 0 263.5 72.5t158.5 167.5l221 1042h149l-221 -1044q-26 -104 -116.5 -193.5t-220.5 -142.5t-265 -53q-216 0 -348 113.5t-109 273.5zM709 1513q6 34 37.5 59t66.5 25q34 0 56 -25.5t16 -58.5 q-7 -34 -40 -60t-67 -26q-35 0 -56 26t-13 60zM965 1513q6 34 37.5 59t66.5 25t57.5 -25t16.5 -59q-7 -34 -40.5 -60t-68.5 -26t-56 26t-13 60z" />
<glyph unicode="&#xdd;" horiz-adv-x="1394" d="M319 1415h195l328 -635q133 137 159 166q63 68 138.5 147t169 176t139.5 146h192l-751 -782l-133 -633h-152l133 633q-80 151 -114 217q-21 39 -304 565zM934 1454l223 232h236l-340 -232h-119z" />
<glyph unicode="&#xde;" horiz-adv-x="1095" d="M23 -383l383 1800h147l-88 -411q127 53 266 53q138 -3 238.5 -76t141.5 -194.5t11 -264.5q-31 -148 -124 -273t-224.5 -197t-269.5 -72q-127 0 -248 55l-88 -420h-145zM297 215q-7 -21 23.5 -39.5t87.5 -30.5t127 -14q147 3 274.5 117.5t161.5 273.5q32 156 -47.5 270.5 t-223.5 114.5q-98 0 -177.5 -23t-98.5 -55z" />
<glyph unicode="&#xdf;" horiz-adv-x="1064" d="M14 -332l367 1727h459q159 -3 249.5 -110.5t59.5 -250.5q-40 -183 -219 -293q75 -54 104.5 -141.5t7.5 -189.5q-36 -164 -180 -283.5t-317 -122.5h-178l-103 133l-100 -469h-150zM266 145h309q109 6 203.5 84t116.5 181q22 102 -45.5 176.5t-198.5 81.5h-274zM408 813 h309q101 3 182.5 65.5t101.5 155.5q17 84 -39 146.5t-155 68.5h-307z" />
<glyph unicode="&#xe0;" horiz-adv-x="831" d="M123 303q30 140 154.5 234t269.5 94h186l2 6q22 105 -11 178t-108 76q-115 0 -254 -39l-6 143q159 43 293 43q127 -3 197 -107t45 -253l-4 -21q-39 -165 -74 -323q-24 -114 -28.5 -203t16.5 -131h-201l8 39q-105 -59 -213 -59q-140 0 -220.5 95t-51.5 228zM270 303 q-15 -72 31.5 -122t126.5 -50q83 0 152 50t84 122l38 180h-186q-87 0 -158 -50t-88 -130zM371 1294h239l125 -231h-119z" />
<glyph unicode="&#xe1;" horiz-adv-x="831" d="M123 303q30 140 154.5 234t269.5 94h186l2 6q22 105 -11 178t-108 76q-115 0 -254 -39l-6 143q159 43 293 43q127 -3 197 -107t45 -253l-4 -21q-39 -165 -74 -323q-24 -114 -28.5 -203t16.5 -131h-201l8 39q-105 -59 -213 -59q-140 0 -220.5 95t-51.5 228zM270 303 q-15 -72 31.5 -122t126.5 -50q83 0 152 50t84 122l38 180h-186q-87 0 -158 -50t-88 -130zM528 1063l224 231h235l-340 -231h-119z" />
<glyph unicode="&#xe2;" horiz-adv-x="831" d="M123 303q30 140 154.5 234t269.5 94h186l2 6q22 105 -11 178t-108 76q-115 0 -254 -39l-6 143q159 43 293 43q127 -3 197 -107t45 -253l-4 -21q-39 -165 -74 -323q-24 -114 -28.5 -203t16.5 -131h-201l8 39q-105 -59 -213 -59q-140 0 -220.5 95t-51.5 228zM270 303 q-15 -72 31.5 -122t126.5 -50q83 0 152 50t84 122l38 180h-186q-87 0 -158 -50t-88 -130zM389 1124l307 250l201 -252l-117 -96l-123 160l-196 -160z" />
<glyph unicode="&#xe3;" horiz-adv-x="831" d="M143 336q30 140 154.5 234t269.5 94h187l2 6q22 105 -11 178t-108 76q-115 0 -254 -39l-6 143q159 43 293 43q127 -3 196.5 -107t44.5 -253l-4 -21q-38 -165 -73 -323q-15 -73 -23 -139t-6.5 -120t16.5 -75h-200l8 39q-107 -60 -213 -60q-140 0 -221 95.5t-52 228.5z M291 336q-15 -72 31.5 -122t126.5 -50q83 0 151.5 50t83.5 122l39 180h-186q-87 0 -158 -50t-88 -130zM340 1167q123 72 227 72q50 0 97 -14h-7q1 0 2.5 -1t2.5 -1q43 -15 63 -15q40 0 88 17.5t86 46.5l33 -115q-51 -35 -111.5 -55.5t-113.5 -20.5q-67 0 -109 23v-2 q-30 10 -55 10q-36 0 -81.5 -17t-80.5 -44z" />
<glyph unicode="&#xe4;" horiz-adv-x="831" d="M143 336q30 140 154.5 234t269.5 94h187l2 6q22 105 -11 178t-108 76q-115 0 -254 -39l-6 143q159 43 293 43q127 -3 196.5 -107t44.5 -253l-4 -21q-38 -165 -73 -323q-15 -73 -23 -139t-6.5 -120t16.5 -75h-200l8 39q-107 -60 -213 -60q-140 0 -221 95.5t-52 228.5z M291 336q-15 -72 31.5 -122t126.5 -50q83 0 151.5 50t83.5 122l39 180h-186q-87 0 -158 -50t-88 -130zM477 1282q6 34 37.5 59t69.5 25q34 0 55.5 -25t15.5 -59q-7 -34 -39.5 -60t-66.5 -26q-38 0 -59 26t-13 60zM735 1282q6 34 38 59t67 25t56 -25t15 -59q-8 -34 -39.5 -60 t-66.5 -26t-56.5 26t-13.5 60z" />
<glyph unicode="&#xe6;" horiz-adv-x="1521" d="M133 303q29 136 150.5 232t261.5 96h192q0 1 2 5.5t2 6.5q9 18 9 19q20 97 -16.5 161.5t-106.5 67.5q-118 0 -254 -39l-6 143q162 43 292 43q81 -3 140.5 -48.5t87.5 -121.5q76 81 165 126.5t177 45.5q173 0 261 -149.5t42 -368.5l-19 -80h-667l-8 -47q5 -113 66 -189.5 t153 -76.5q102 0 280 80l33 -129q-124 -65 -291 -96q-16 -2 -53 -2q-142 0 -246 104q7 -52 51 -86h-221l8 39q-105 -59 -212 -59q-140 0 -221 95t-52 228zM283 303q-15 -72 29.5 -122t125.5 -50q82 0 151.5 50t84.5 122l10 53q0 65 10 119l2 8h-182q-82 0 -149 -52.5 t-82 -127.5zM879 586h516q11 133 -44 219t-153 86q-99 0 -191 -86.5t-128 -218.5z" />
<glyph unicode="&#xe7;" horiz-adv-x="1009" d="M166 512q29 141 120.5 262.5t221 192.5t264.5 71q103 0 191 -49t147 -137l-125 -102q-47 66 -111 103.5t-133 37.5q-145 0 -270.5 -111t-157.5 -268q-34 -158 44 -269.5t223 -111.5q142 0 292 131l84 -100q-81 -72 -176 -119t-186 -59q31 -15 52 -50.5t13 -76.5 q-17 -78 -165 -158l-121 115q50 5 99 16.5t52 22.5q4 19 -13.5 26.5t-39.5 7.5q-1 0 -4 -1t-6 -1h-43l26 109q-162 37 -240.5 180.5t-37.5 337.5z" />
<glyph unicode="&#xe8;" horiz-adv-x="933" d="M137 473l8 39q46 217 202 372.5t327 155.5q174 0 260.5 -149t40.5 -369l-19 -80h-673q-12 -136 49.5 -224t171.5 -89q97 0 280 80l31 -129q-142 -71 -289 -96q-16 -2 -53 -2q-113 0 -197.5 65t-122 178t-16.5 248zM317 586h523q12 133 -43 219t-154 86q-92 0 -184 -87.5 t-142 -217.5zM430 1294h240l125 -231h-119z" />
<glyph unicode="&#xe9;" horiz-adv-x="933" d="M137 473l8 39q46 217 202 372.5t327 155.5q174 0 260.5 -149t40.5 -369l-19 -80h-673q-12 -136 49.5 -224t171.5 -89q97 0 280 80l31 -129q-142 -71 -289 -96q-16 -2 -53 -2q-113 0 -197.5 65t-122 178t-16.5 248zM317 586h523q12 133 -43 219t-154 86q-92 0 -184 -87.5 t-142 -217.5zM588 1063l223 231h236l-340 -231h-119z" />
<glyph unicode="&#xea;" horiz-adv-x="933" d="M137 473l8 39q46 217 202 372.5t327 155.5q174 0 260.5 -149t40.5 -369l-19 -80h-673q-12 -136 49.5 -224t171.5 -89q97 0 280 80l31 -129q-142 -71 -289 -96q-16 -2 -53 -2q-113 0 -197.5 65t-122 178t-16.5 248zM317 586h523q12 133 -43 219t-154 86q-92 0 -184 -87.5 t-142 -217.5zM440 1124l308 250l200 -252l-117 -96l-122 160l-197 -160z" />
<glyph unicode="&#xeb;" horiz-adv-x="933" d="M137 473l8 39q46 217 202 372.5t327 155.5q174 0 260.5 -149t40.5 -369l-19 -80h-673q-12 -136 49.5 -224t171.5 -89q97 0 280 80l31 -129q-142 -71 -289 -96q-16 -2 -53 -2q-113 0 -197.5 65t-122 178t-16.5 248zM317 586h523q12 133 -43 219t-154 86q-92 0 -184 -87.5 t-142 -217.5zM514 1282q6 34 37.5 59t66.5 25q34 0 56 -25.5t16 -58.5q-7 -34 -39.5 -60t-66.5 -26q-35 0 -56.5 26t-13.5 60zM770 1282q6 34 37.5 59t66.5 25t57.5 -25t16.5 -59q-8 -34 -40.5 -60t-67.5 -26t-56.5 26t-13.5 60z" />
<glyph unicode="&#xec;" horiz-adv-x="432" d="M158 0l217 1026h143l-217 -1026h-143zM229 1327h240l125 -231h-119z" />
<glyph unicode="&#xed;" horiz-adv-x="432" d="M100 0l217 1026h148l-217 -1026h-148zM281 1096l223 231h235l-340 -231h-118z" />
<glyph unicode="&#xee;" horiz-adv-x="362" d="M100 0l217 1026h144l-217 -1026h-144zM176 1157l307 250l201 -252l-117 -96l-123 160l-196 -160z" />
<glyph unicode="&#xef;" horiz-adv-x="362" d="M100 0l217 1026h144l-217 -1026h-144zM268 1282q6 34 38 59t67 25t56 -25t15 -59q-8 -34 -39.5 -60t-66.5 -26t-56.5 26t-13.5 60zM449 1282q6 34 37 59t69 25q34 0 56 -25.5t16 -58.5q-7 -34 -40 -60t-67 -26q-38 0 -58.5 26t-12.5 60z" />
<glyph unicode="&#xf0;" horiz-adv-x="1001" d="M125 182l156 109q32 -73 90.5 -113.5t126.5 -40.5q112 0 209.5 71.5t146.5 180.5v-2q45 140 78 275q-152 -119 -330 -119q-112 0 -198.5 54.5t-125.5 150.5t-16 210l2 13q39 178 191.5 305t332.5 127q172 0 271.5 -125t75.5 -299q-7 -56 -52 -272l-10 -52 q-46 -195 -90 -299q-64 -163 -214.5 -266.5t-317.5 -103.5q-100 0 -187 53.5t-139 142.5zM403 963q-17 -115 49 -195t181 -80q121 0 223.5 83.5t128.5 203.5q23 113 -44.5 195.5t-180.5 82.5q-122 0 -226 -86t-131 -204z" />
<glyph unicode="&#xf1;" horiz-adv-x="886" d="M76 33l190 905q6 24 -5.5 58.5t-27.5 54.5h203l-14 -66q109 90 256 90q146 0 224.5 -111.5t49.5 -273.5l-135 -657h-147l139 657q20 99 -31.5 168.5t-142.5 69.5q-76 0 -153 -63.5t-117 -149.5l-144 -682h-145zM387 1257q112 66 223 66q48 0 80 -12q1 -1 9.5 -5t11.5 -6 h-2q30 -10 67 -10q34 0 80 17.5t84 44.5l35 -119q-114 -70 -227 -70q-71 0 -113 23q-27 10 -57 10q-67 0 -164 -57z" />
<glyph unicode="&#xf2;" horiz-adv-x="1079" d="M133 508q47 219 222.5 374.5t373.5 155.5q132 0 228 -71t134 -193t7 -266q-46 -217 -220 -372.5t-374 -155.5q-130 0 -226 71t-135.5 193t-9.5 264zM283 508q-32 -157 42 -268t212 -111q137 0 258 111.5t153 267.5q22 104 -3.5 192t-91 139.5t-155.5 51.5 q-138 0 -259.5 -112.5t-155.5 -270.5zM504 1294h239l125 -231h-118z" />
<glyph unicode="&#xf3;" horiz-adv-x="1079" d="M133 508q47 219 222.5 374.5t373.5 155.5q132 0 228 -71t134 -193t7 -266q-46 -217 -220 -372.5t-374 -155.5q-130 0 -226 71t-135.5 193t-9.5 264zM283 508q-32 -157 42 -268t212 -111q137 0 258 111.5t153 267.5q22 104 -3.5 192t-91 139.5t-155.5 51.5 q-138 0 -259.5 -112.5t-155.5 -270.5zM674 1063l223 231h236l-340 -231h-119z" />
<glyph unicode="&#xf4;" horiz-adv-x="1050" d="M133 508q47 219 222.5 374.5t373.5 155.5q132 0 228 -71t134 -193t7 -266q-46 -217 -220 -372.5t-374 -155.5q-130 0 -226 71t-135.5 193t-9.5 264zM283 508q-32 -157 42 -268t212 -111q137 0 258 111.5t153 267.5q22 104 -3.5 192t-91 139.5t-155.5 51.5 q-138 0 -259.5 -112.5t-155.5 -270.5zM500 1124l307 250l201 -252l-117 -96l-123 160l-197 -160z" />
<glyph unicode="&#xf5;" horiz-adv-x="1050" d="M133 508q47 219 222.5 374.5t373.5 155.5q132 0 228 -71t134 -193t7 -266q-46 -217 -220 -372.5t-374 -155.5q-130 0 -226 71t-135.5 193t-9.5 264zM283 508q-32 -157 42 -268t212 -111q137 0 258 111.5t153 267.5q22 104 -3.5 192t-91 139.5t-155.5 51.5 q-138 0 -259.5 -112.5t-155.5 -270.5zM498 1245q96 47 182 47q47 0 115 -22q3 -1 8 -3t8 -3q52 -27 100 -27q58 0 140 45l16 -123q-90 -49 -182 -49q-94 0 -183 66l35 -25q-35 14 -86 14q-52 0 -133 -43z" />
<glyph unicode="&#xf6;" horiz-adv-x="1079" d="M133 508q47 219 222.5 374.5t373.5 155.5q132 0 228 -71t134 -193t7 -266q-46 -217 -220 -372.5t-374 -155.5q-130 0 -226 71t-135.5 193t-9.5 264zM283 508q-32 -157 42 -268t212 -111q137 0 258 111.5t153 267.5q22 104 -3.5 192t-91 139.5t-155.5 51.5 q-138 0 -259.5 -112.5t-155.5 -270.5zM598 1282q6 34 37.5 59t66.5 25q34 0 56 -25.5t16 -58.5q-7 -34 -39.5 -60t-66.5 -26q-35 0 -56.5 26t-13.5 60zM854 1282q6 34 37.5 59t66.5 25t57.5 -25t16.5 -59q-8 -34 -40.5 -60t-67.5 -26t-56.5 26t-13.5 60z" />
<glyph unicode="&#xf7;" horiz-adv-x="870" d="M180 557l31 148h729l-31 -148h-729zM377 268l41 191h190l-41 -191h-190zM477 741l41 191h191l-41 -191h-191z" />
<glyph unicode="&#xf8;" horiz-adv-x="1050" d="M133 508q47 219 222.5 374.5t373.5 155.5q102 0 188 -50t144 -138l-137 -100q-43 67 -102 104t-124 37q-138 0 -259.5 -112.5t-155.5 -270.5q-23 -112 10 -209l-135 -100q-53 167 -25 309zM162 193l131 100q39 -76 103.5 -120t140.5 -44q137 0 258 111.5t153 267.5 q25 121 -24 237l137 99q73 -175 37 -336q-46 -217 -220 -372.5t-374 -155.5q-108 0 -196.5 56.5t-145.5 156.5z" />
<glyph unicode="&#xf9;" horiz-adv-x="921" d="M150 365l141 657h145l-137 -643v-10q-15 -97 35 -166.5t139 -69.5q75 0 152 65t112 148l146 680h147l-190 -899q-7 -29 3.5 -67.5t26.5 -59.5h-204l14 74q-123 -92 -252 -92q-142 0 -221 109t-51 267zM428 1294h240l125 -231h-119z" />
<glyph unicode="&#xfa;" horiz-adv-x="921" d="M150 365l141 657h145l-137 -643v-10q-15 -97 35 -166.5t139 -69.5q75 0 152 65t112 148l146 680h147l-190 -899q-7 -29 3.5 -67.5t26.5 -59.5h-204l14 74q-123 -92 -252 -92q-142 0 -221 109t-51 267zM565 1063l223 231h236l-340 -231h-119z" />
<glyph unicode="&#xfb;" horiz-adv-x="921" d="M150 365l141 657h145l-137 -643v-10q-15 -97 35 -166.5t139 -69.5q75 0 152 65t112 148l146 680h147l-190 -899q-7 -29 3.5 -67.5t26.5 -59.5h-204l14 74q-123 -92 -252 -92q-142 0 -221 109t-51 267zM434 1124l307 250l201 -252l-117 -96l-123 160l-196 -160z" />
<glyph unicode="&#xfc;" horiz-adv-x="921" d="M150 365l141 657h145l-137 -643v-10q-15 -97 35 -166.5t139 -69.5q75 0 152 65t112 148l146 680h147l-190 -899q-7 -29 3.5 -67.5t26.5 -59.5h-204l14 74q-123 -92 -252 -92q-142 0 -221 109t-51 267zM508 1282q6 34 37.5 59t66.5 25q34 0 56 -25.5t16 -58.5 q-7 -34 -39.5 -60t-66.5 -26q-35 0 -56.5 26t-13.5 60zM764 1282q6 34 37.5 59t66.5 25t57.5 -25t16.5 -59q-8 -34 -40.5 -60t-67.5 -26t-56.5 26t-13.5 60z" />
<glyph unicode="&#xfd;" horiz-adv-x="1095" d="M2 -369l59 170q31 -41 80 -41q61 0 125.5 42t108.5 116q8 15 17.5 30t21 34t18.5 30t23.5 39t27.5 45q-20 114 -24 142q-12 62 -71.5 365t-86.5 435h158l139 -753l133 218.5t162 266.5q55 93 164 268h157l-585 -950q-9 -15 -28 -45t-28 -45q-11 -19 -38.5 -64.5 t-40.5 -68.5q-67 -115 -175.5 -182.5t-209.5 -67.5q-48 0 -107 16zM694 1063l224 231h235l-340 -231h-119z" />
<glyph unicode="&#xfe;" horiz-adv-x="1058" d="M23 -377l376 1774h150l-86 -406q117 51 262 51q135 -3 233.5 -74.5t139 -191.5t10.5 -260q-31 -146 -122.5 -269t-220.5 -194t-265 -71q-125 0 -242 55l-88 -414h-147zM297 211q-6 -20 23.5 -38t85 -29t124.5 -13q94 2 185 53t157.5 139t88.5 191q32 152 -48 265.5 t-221 113.5q-93 0 -170.5 -23t-101.5 -55z" />
<glyph unicode="&#xff;" horiz-adv-x="1095" d="M2 -369l59 170q31 -41 80 -41q61 0 125.5 42t108.5 116q8 15 17.5 30t21 34t18.5 30t23.5 39t27.5 45q-20 114 -24 142q-12 62 -71.5 365t-86.5 435h158l139 -753l133 218.5t162 266.5q55 93 164 268h157l-585 -950q-9 -15 -28 -45t-28 -45q-11 -19 -38.5 -64.5 t-40.5 -68.5q-67 -115 -175.5 -182.5t-209.5 -67.5q-48 0 -107 16zM616 1282q6 34 38 59t67 25q34 0 56 -25.5t16 -58.5q-7 -34 -40 -60t-67 -26q-35 0 -56.5 26t-13.5 60zM872 1282q6 34 38 59t67 25t57.5 -25t16.5 -59q-7 -34 -40.5 -60t-68.5 -26t-56.5 26t-13.5 60z" />
<glyph unicode="&#x152;" horiz-adv-x="2162" d="M185.5 473.5q-8.5 109.5 15.5 233.5q41 195 162.5 360t290 260.5t343.5 95.5q327 0 447 -252l51 244h846l-31 -145h-698l-94 -445h596l-31 -149h-596l-113 -526h699l-31 -150h-846l51 242q-51 -51 -65 -62q-223 -198 -490 -198q-102 0 -191.5 36t-155 100.5t-108.5 155 t-51.5 200zM352 707q-34 -156 3.5 -288t134.5 -209t233 -77q191 0 365.5 153t246.5 371l21 97q27 223 -80 368q-51 72 -131.5 111t-179.5 39q-204 0 -383 -164.5t-230 -400.5z" />
<glyph unicode="&#x153;" horiz-adv-x="1802" d="M145 508q31 144 122.5 266t218 193t257.5 71q121 0 216 -68.5t139 -178.5q79 118 184.5 183.5t220.5 65.5q173 0 261 -149.5t42 -368.5l-18 -80h-678q-11 -136 51 -224t170 -89q103 0 281 80l33 -129q-126 -66 -291 -96q-14 -2 -54 -2q-118 0 -200.5 67t-116.5 184 q-91 -115 -215.5 -184t-249.5 -69q-131 0 -227.5 71t-136 193t-9.5 264zM293 508q-32 -157 43.5 -268t214.5 -111q136 0 257 111.5t153 267.5q34 158 -39.5 270.5t-208.5 112.5q-140 0 -263 -112.5t-157 -270.5zM1145 586h524q11 133 -43.5 219t-152.5 86q-92 0 -184 -87.5 t-144 -217.5z" />
<glyph unicode="&#x178;" horiz-adv-x="1394" d="M319 1415h195l328 -635q133 137 159 166q63 68 138.5 147t169 176t139.5 146h192l-751 -782l-133 -633h-152l133 633q-80 151 -114 217q-21 39 -304 565zM786 1493q6 34 38 59t67 25q34 0 56 -25.5t16 -58.5q-7 -34 -40 -60t-67 -26q-35 0 -56.5 26t-13.5 60zM1042 1493 q6 34 38 59t67 25t57.5 -25t16.5 -59q-7 -34 -40.5 -60t-68.5 -26t-56.5 26t-13.5 60z" />
<glyph unicode="&#x2c6;" horiz-adv-x="548" d="M260 1124l307 250l201 -252l-117 -96l-123 160l-196 -160z" />
<glyph unicode="&#x2dc;" horiz-adv-x="684" d="M299 1245q96 47 182 47q47 0 115 -22q3 -1 8 -3t8 -3q52 -27 101 -27q57 0 139 45l16 -123q-90 -49 -182 -49q-93 0 -182 66l35 -25q-35 14 -86 14q-53 0 -134 -43z" />
<glyph unicode="&#x2000;" horiz-adv-x="848" />
<glyph unicode="&#x2001;" horiz-adv-x="1696" />
<glyph unicode="&#x2002;" horiz-adv-x="848" />
<glyph unicode="&#x2003;" horiz-adv-x="1696" />
<glyph unicode="&#x2004;" horiz-adv-x="565" />
<glyph unicode="&#x2005;" horiz-adv-x="424" />
<glyph unicode="&#x2006;" horiz-adv-x="282" />
<glyph unicode="&#x2007;" horiz-adv-x="282" />
<glyph unicode="&#x2008;" horiz-adv-x="212" />
<glyph unicode="&#x2009;" horiz-adv-x="339" />
<glyph unicode="&#x200a;" horiz-adv-x="94" />
<glyph unicode="&#x2010;" horiz-adv-x="862" d="M172 524l31 148h729l-31 -148h-729z" />
<glyph unicode="&#x2011;" horiz-adv-x="862" d="M172 524l31 148h729l-31 -148h-729z" />
<glyph unicode="&#x2012;" horiz-adv-x="862" d="M172 524l31 148h729l-31 -148h-729z" />
<glyph unicode="&#x2013;" horiz-adv-x="851" d="M172 524l31 148h729l-31 -148h-729z" />
<glyph unicode="&#x2014;" horiz-adv-x="1089" d="M176 524l31 148h948l-31 -148h-948z" />
<glyph unicode="&#x2018;" horiz-adv-x="307" d="M285 1174l155 229l62 -33l-56 -160l33 -129l-157 -63z" />
<glyph unicode="&#x2019;" horiz-adv-x="325" d="M264 1094l98 143l15 145l160 13l-17 -164l-215 -189z" />
<glyph unicode="&#x201a;" horiz-adv-x="352" d="M23 -86l106 129l31 147h157l-36 -172l-232 -170z" />
<glyph unicode="&#x201c;" horiz-adv-x="446" d="M301 1231l53 164l156 -13l-49 -145q5 -20 14 -55.5t14 -55.5q0 -13 7 -34l-58 -50zM442 1231l52 164l157 -13l-49 -145q5 -20 13.5 -55.5t13.5 -55.5q1 -2 4 -16.5t4 -17.5l-57 -50z" />
<glyph unicode="&#x201d;" horiz-adv-x="485" d="M266 1094l99 143l12 145l162 13l-19 -164l-215 -189zM408 1094l98 143l12 145l160 13l-16 -164l-216 -189z" />
<glyph unicode="&#x201e;" horiz-adv-x="473" d="M6 -84l105 131l26 146h160l-35 -166l-231 -174zM147 -86l107 131l31 148h155l-34 -173l-234 -172z" />
<glyph unicode="&#x2022;" horiz-adv-x="428" d="M221 770q13 61 70 107.5t117 46.5t96.5 -46.5t23.5 -107.5q-10 -57 -67 -102t-117 -45t-97 45t-26 102z" />
<glyph unicode="&#x2026;" horiz-adv-x="890" d="M63 0l39 190h189l-39 -190h-189zM342 0l39 190h188l-39 -190h-188zM621 0l38 190h189l-39 -190h-188z" />
<glyph unicode="&#x202f;" horiz-adv-x="339" />
<glyph unicode="&#x2039;" horiz-adv-x="720" d="M162 510l626 518l84 -102l-501 -416q100 -130 151 -191q4 -6 174 -217l-125 -106z" />
<glyph unicode="&#x203a;" horiz-adv-x="702" d="M76 102l502 408q-289 369 -326 416l127 102l403 -518l-624 -514z" />
<glyph unicode="&#x205f;" horiz-adv-x="424" />
<glyph unicode="&#x20ac;" horiz-adv-x="1525" d="M176 502l31 147h186q0 15 8 39q11 48 21 74v4h-191l31 147h219q113 217 317 353.5t421 136.5q276 0 462 -248l-127 -106q-145 202 -368 202q-155 0 -305.5 -95t-241.5 -243h643l-31 -147h-680q-9 -24 -20 -78q-4 -12 -4 -29l-2 -10h682l-31 -147h-649q22 -160 133 -264.5 t268 -104.5q226 0 457 215l80 -119q-286 -247 -567 -247q-231 0 -377 145.5t-154 374.5h-211z" />
<glyph unicode="&#x2122;" horiz-adv-x="854" d="M305 1255l27 123h354l-27 -123h-112l-72 -333h-127l72 333h-115zM557 922l98 456h103l55 -145q10 12 28 34l27 33q12 12 27 33q30 36 39 45h100l-98 -456h-125l39 182q-13 -22 -41 -55h-72l-16 45l-37 -172h-127z" />
<glyph unicode="&#x25fc;" horiz-adv-x="1024" d="M0 0v1024h1024v-1024h-1024z" />
<glyph unicode="&#xfb01;" horiz-adv-x="1034" d="M197 0l180 856h-146l33 150h144v12l6 26q39 146 153 252.5t236 106.5q57 0 135 -10l-76 -150q-49 12 -90 12q-71 -3 -134 -70t-83 -163l-4 -16h250l-213 -1006h-144l181 856h-107l-180 -856h-141z" />
<glyph unicode="&#xfb02;" horiz-adv-x="1003" d="M197 0l180 856h-148l33 150h146v12l6 26q38 149 150.5 252.5t238.5 106.5h127l-297 -1403h-152l181 856h-144l-180 -856h-141zM551 1006h143l54 247q-64 -14 -120 -80t-73 -151zM752 1276l12 61l65 -82h-57z" />
</font>
</defs>
</svg>
